<svg id="Group_66" data-name="Group 66" xmlns="http://www.w3.org/2000/svg" width="280.5" height="173.828" viewBox="0 0 280.5 173.828">
  <path id="Path_3" data-name="Path 3" d="M932.4,496.843l-.186-.238-.184-.239-.182-.24-.18-.242q-.15-3.494,0-6.926.143-3.408.577-6.734.429-3.3,1.136-6.5.7-3.175,1.673-6.23.111-.352.225-.7t.234-.694q.118-.346.241-.69t.249-.684q.935-2.551,2.059-4.977,1.116-2.409,2.411-4.685,1.285-2.26,2.739-4.38,1.444-2.1,3.049-4.062l.169-.2.169-.2.17-.2.17-.2.123-.145.124-.144.125-.143q.063-.071.128-.141l.1-.056.1-.055.1-.055.1-.055.006,0,.006,0,.006,0,.006,0,.04-.022.04-.022.039-.022.038-.022.175-.094.174-.092.174-.092.173-.093-.132-.066-.331-.165h0l.085.039.084.039.084.04.084.04.032.014.033.014.033.014a.228.228,0,0,1,.032.016.172.172,0,0,0,.028.012l.029.012.029.012.028.012c1.206.553,2.415,1.114,3.609,1.7s2.368,1.2,3.512,1.862a37.525,37.525,0,0,1,3.31,2.14,27.167,27.167,0,0,1,3.008,2.522,19.781,19.781,0,0,1,2.649,3.2,17.569,17.569,0,0,1,1.862,3.635,13.011,13.011,0,0,1,.811,3.8,9.353,9.353,0,0,1-.517,3.684q-.085.231-.182.456t-.209.442q-.111.218-.235.428t-.26.412q-.057.084-.116.167t-.12.164l-.123.162q-.062.081-.126.16a8.427,8.427,0,0,1-2.936,2.345,9.392,9.392,0,0,1-3.67.91,10.768,10.768,0,0,1-3.939-.572,11.777,11.777,0,0,1-3.723-2.089,11.975,11.975,0,0,1-1.082-1.014,11.828,11.828,0,0,1-.94-1.13,11.553,11.553,0,0,1-.785-1.227,11.14,11.14,0,0,1-.617-1.308,9.775,9.775,0,0,0,.634,4.093,15.656,15.656,0,0,0,2.136,3.829,27.9,27.9,0,0,0,3.111,3.482c1.14,1.093,2.351,2.118,3.547,3.062s2.435,1.909,3.634,2.916a40.763,40.763,0,0,1,3.415,3.167,20.752,20.752,0,0,1,2.756,3.556,13.464,13.464,0,0,1,1.655,4.1,10.664,10.664,0,0,1-.051,4.779,11.442,11.442,0,0,1-.782,2.215,12.505,12.505,0,0,1-1.212,2.036l-.044.058-.044.058-.045.058-.045.058a13.847,13.847,0,0,1-4.21,3.655,14.116,14.116,0,0,1-2.592,1.132,14.588,14.588,0,0,1-2.831.609,18.45,18.45,0,0,1-5.471-.313,24.337,24.337,0,0,1-5.363-1.794,32.6,32.6,0,0,1-5.055-2.946,40.285,40.285,0,0,1-4.553-3.752q-.567-.541-1.115-1.1t-1.073-1.14q-.527-.58-1.03-1.177T932.4,496.843Z" transform="translate(-688.649 -360.539)" fill="#f2f2f2"/>
  <path id="Path_4" data-name="Path 4" d="M996,469.853a26.849,26.849,0,0,1-8.738-7.246,25.93,25.93,0,0,1-2.112-3.136,25.344,25.344,0,0,1-1.39-2.866,24.029,24.029,0,0,1-.99-2.946,22.578,22.578,0,0,1-.579-2.979,21.155,21.155,0,0,1-.162-2.968q0-.084,0-.167t0-.167q0-.084.006-.166l.008-.165-.142.113-.141.115-.141.116-.14.116-.09.075-.09.075-.09.076-.089.076.123-.144.126-.149.125-.143q.063-.071.128-.141l.1-.056.1-.055.1-.055.1-.055.006,0,.006,0,.006,0,.006,0,.04-.022.04-.022.039-.022.038-.022.175-.094.174-.092.174-.092.174-.092-.136-.068-.331-.165h0l.085.038.084.039.084.04.084.04.032.014.032.014.033.014a.218.218,0,0,1,.031.015l0,.053,0,.049,0,.049,0,.05a20.126,20.126,0,0,0,.259,5,22.514,22.514,0,0,0,1.48,4.94,24.658,24.658,0,0,0,2.623,4.649,26.007,26.007,0,0,0,3.673,4.121,26.465,26.465,0,0,0,4.478,3.232,25.772,25.772,0,0,0,2.44,1.231,24.974,24.974,0,0,0,2.536.953q-.057.084-.116.167t-.12.164l-.123.162q-.062.081-.126.16-.5-.165-.992-.351t-.982-.393q-.488-.207-.97-.434T996,469.853Z" transform="translate(-722.844 -360.537)" fill="#fff"/>
  <path id="Path_5" data-name="Path 5" d="M947.136,527.839q-.555-.829-1.048-1.689t-.921-1.743q-.428-.884-.791-1.79t-.657-1.828q-.15-.489-.278-.981t-.23-.986q-.1-.494-.183-.99t-.135-.992q-.028-.231-.05-.463t-.04-.463q-.017-.232-.029-.463t-.019-.462q.111-.352.225-.7t.233-.7q.118-.346.241-.69t.249-.684q-.028.286-.047.573t-.031.576q-.012.289-.015.579t0,.581q0,.159,0,.317t.008.318q.006.159.014.318t.019.318a20.179,20.179,0,0,0,.557,3.52,23.586,23.586,0,0,0,1.142,3.423A28.316,28.316,0,0,0,947,526.032a34.07,34.07,0,0,0,2.062,3.126q1.2,1.625,2.54,3.164t2.779,2.994q1.441,1.453,2.967,2.817t3.1,2.633q1.615,1.3,3.3,2.508t3.415,2.3q1.734,1.1,3.521,2.09t3.613,1.869a.512.512,0,0,1,.149.11.534.534,0,0,1,.1.152.514.514,0,0,1,.042.174.47.47,0,0,1-.023.179.386.386,0,0,1-.026.072.375.375,0,0,1-.039.064.355.355,0,0,1-.051.054.346.346,0,0,1-.061.041.3.3,0,0,1-.071.022.313.313,0,0,1-.075,0,.33.33,0,0,1-.075-.014.345.345,0,0,1-.073-.031l-.451-.217-.45-.22-.449-.223q-.224-.113-.448-.228-1.862-.957-3.674-2.028t-3.57-2.254q-1.757-1.182-3.451-2.471t-3.316-2.68c-1.045-.893-2.076-1.816-3.083-2.771s-1.988-1.94-2.933-2.956-1.852-2.064-2.712-3.143S947.886,528.981,947.136,527.839Z" transform="translate(-696.354 -406.035)" fill="#fff"/>
  <path id="Path_1" data-name="Path 1" d="M804.489,205.222l-.889.116,5.962-22.375a9.658,9.658,0,0,0,.208-4.6,6.072,6.072,0,0,0-1.854-3.241,6.941,6.941,0,0,0-3.492-1.621,12.014,12.014,0,0,0-4.731.212h0l-40.517,9.227a14.308,14.308,0,0,0-4.014,1.651,21.047,21.047,0,0,0-3.758,2.849,22.969,22.969,0,0,0-3.146,3.669,18.7,18.7,0,0,0-2.173,4.152h0l-42.393,116.6a24.076,24.076,0,0,0-1.363,5.949,18.054,18.054,0,0,0,.26,5.406,11.105,11.105,0,0,0,1.83,4.3,6.98,6.98,0,0,0,3.358,2.533h0l42.809,14.737a11.146,11.146,0,0,0,5.908.352,14.8,14.8,0,0,0,5.79-2.666,20.5,20.5,0,0,0,4.888-5.238,24.7,24.7,0,0,0,3.209-7.219h0L799.08,222.3l.9-.072Z" transform="translate(-530.323 -172.12)" fill="#2f2e41"/>
  <path id="Path_1-2" data-name="Path 1" d="M794.489,201.222l-.889.116,5.962-22.375a9.66,9.66,0,0,0,.208-4.6,6.072,6.072,0,0,0-1.854-3.241,6.941,6.941,0,0,0-3.492-1.621,12.014,12.014,0,0,0-4.731.212h0l-40.517,9.227a14.307,14.307,0,0,0-4.014,1.651,21.048,21.048,0,0,0-3.758,2.849,22.973,22.973,0,0,0-3.146,3.669,18.7,18.7,0,0,0-2.173,4.152h0l-42.393,116.6a24.079,24.079,0,0,0-1.363,5.949,18.053,18.053,0,0,0,.26,5.406,11.106,11.106,0,0,0,1.83,4.3,6.98,6.98,0,0,0,3.358,2.533h0l42.809,14.737a11.146,11.146,0,0,0,5.908.352,14.8,14.8,0,0,0,5.79-2.666,20.506,20.506,0,0,0,4.888-5.238,24.7,24.7,0,0,0,3.209-7.219h0L789.08,218.3l.9-.072Z" transform="translate(-523.42 -169.359)" fill="#3f3d56"/>
  <path id="Path_2" data-name="Path 2" d="M795.981,179.383l-5.956,1.3a3.474,3.474,0,0,1-.15,1.531,6.2,6.2,0,0,1-.8,1.621,8.607,8.607,0,0,1-3.015,2.713q-.217.115-.432.213t-.43.177q-.214.08-.426.141t-.418.1L761.069,191.9a2.763,2.763,0,0,1-1.312-.015,1.611,1.611,0,0,1-.867-.584,1.922,1.922,0,0,1-.354-1.047,3.69,3.69,0,0,1,.223-1.409q.062-.182.141-.367t.173-.37q.093-.186.2-.37t.232-.368l-4.409.966a10.591,10.591,0,0,0-3.015,1.22,15.681,15.681,0,0,0-2.836,2.137,17.155,17.155,0,0,0-2.375,2.766,13.929,13.929,0,0,0-1.631,3.13L702.929,315.206a17.9,17.9,0,0,0-1.005,4.484,13.325,13.325,0,0,0,.228,4.045,8.16,8.16,0,0,0,1.405,3.179,5.179,5.179,0,0,0,2.529,1.838h0l43.124,14.01a8.393,8.393,0,0,0,4.4.2,11.143,11.143,0,0,0,4.277-2.007,15.342,15.342,0,0,0,3.6-3.871,18.423,18.423,0,0,0,2.381-5.32h0l39.4-145.4a7.287,7.287,0,0,0,.179-3.421,4.567,4.567,0,0,0-1.349-2.436,5.144,5.144,0,0,0-2.584-1.245A8.872,8.872,0,0,0,795.981,179.383Z" transform="translate(-530.065 -176.11)" fill="#6e6e6e"/>
  <path id="Path_2194" data-name="Path 2194" d="M739.881,295H654.1v-29.07h85.785Z" transform="translate(-497.092 -236.019)" fill="#fff"/>
  <rect id="Rectangle_377" data-name="Rectangle 377" width="84.075" height="40.755" transform="translate(133.633 69.237)" fill="#fff"/>
  <circle id="Ellipse_127" data-name="Ellipse 127" cx="6.081" cy="6.081" r="6.081" transform="translate(141.21 76.644)" fill="#3f3d56"/>
  <path id="Path_2195" data-name="Path 2195" d="M665.83,423.385a1.014,1.014,0,0,0,0,2.027h47.783a1.014,1.014,0,0,0,0-2.027Z" transform="translate(-504.493 -344.714)" fill="#e6e6e6"/>
  <path id="Path_2196" data-name="Path 2196" d="M665.825,443.022a1.014,1.014,0,0,0,0,2.027h20.565a1.014,1.014,0,0,0,0-2.027Z" transform="translate(-504.488 -358.269)" fill="#e6e6e6"/>
  <path id="Path_2197" data-name="Path 2197" d="M604.559,474.415c-.771,0-1.4.455-1.4,1.014s.627,1.014,1.4,1.014h65.926c.771,0,1.4-.455,1.4-1.014s-.627-1.014-1.4-1.014Z" transform="translate(-461.931 -379.94)" fill="#e6e6e6"/>
  <path id="Path_2198" data-name="Path 2198" d="M604.559,494.052c-.771,0-1.4.455-1.4,1.014s.627,1.014,1.4,1.014h50.751c.771,0,1.4-.455,1.4-1.014s-.627-1.014-1.4-1.014Z" transform="translate(-461.931 -393.495)" fill="#e6e6e6"/>
  <path id="Path_2199" data-name="Path 2199" d="M661.66,432.625H575.874V390.16H661.66Zm-84.075-1.71H659.95V391.87H577.584Z" transform="translate(-443.096 -321.778)" fill="#e6e6e6"/>
  <circle id="Ellipse_128" data-name="Ellipse 128" cx="6.081" cy="6.081" r="6.081" transform="translate(165.435 38.169)" fill="#3f3d56"/>
  <path id="Path_2200" data-name="Path 2200" d="M744.051,299.151a1.014,1.014,0,1,0,0,2.027h47.783a1.014,1.014,0,0,0,0-2.027Z" transform="translate(-558.489 -258.955)" fill="#e6e6e6"/>
  <path id="Path_2201" data-name="Path 2201" d="M744.046,318.788a1.014,1.014,0,1,0,0,2.027h37.6a1.014,1.014,0,1,0,0-2.027Z" transform="translate(-558.484 -272.51)" fill="#e6e6e6"/>
  <path id="Path_2202" data-name="Path 2202" d="M739.881,295H654.1v-29.07h85.785Zm-84.075-1.71h82.365v-25.65H655.806Z" transform="translate(-497.092 -236.019)" fill="#e6e6e6"/>
  <path id="Path_2203" data-name="Path 2203" d="M239.683,510.809h4.324l2.057-16.68h-6.383Z" transform="translate(-165.453 -341.098)" fill="#ffb6b6"/>
  <path id="Path_2204" data-name="Path 2204" d="M0,0H13.591V5.251H4.61A4.61,4.61,0,0,1,0,.641Z" transform="translate(86.894 173.727) rotate(179.997)" fill="#2f2e41"/>
  <path id="Path_2205" data-name="Path 2205" d="M100.06,497.313l3.789,2.083,9.839-13.625L108.1,482.7Z" transform="translate(-69.072 -333.206)" fill="#ffb6b6"/>
  <path id="Path_2206" data-name="Path 2206" d="M0,0H13.591V5.251H4.61A4.61,4.61,0,0,1,0,.641Z" transform="translate(40.152 173.726) rotate(-151.199)" fill="#2f2e41"/>
  <path id="Path_2207" data-name="Path 2207" d="M299.118,512.483a1.587,1.587,0,0,1-1.573-1.383l-5.408-41.674a.882.882,0,0,0-1.647-.312L267.952,510a1.6,1.6,0,0,1-1.955.717l-4.913-1.872a1.587,1.587,0,0,1-.905-2.082l15.613-38.355a1.225,1.225,0,0,0,.08-.3c2.115-16.368,7.5-24.691,9.094-26.853a1.229,1.229,0,0,0,.175-1.119l-.22-.659a1.586,1.586,0,0,1,.305-1.544c5.761-6.561,15.8-2.981,15.9-2.944l.05.019.031.043c11.258,15.44,7.1,65.588,6.147,75.484a1.583,1.583,0,0,1-1.458,1.428l-6.657.513C299.2,512.481,299.159,512.483,299.118,512.483Z" transform="translate(-225.09 -352.03)" fill="#2f2e41"/>
  <circle id="Ellipse_129" data-name="Ellipse 129" cx="9.624" cy="9.624" r="9.624" transform="translate(61.352 25.407)" fill="#ffb8b8"/>
  <path id="Path_2208" data-name="Path 2208" d="M328.274,370.808l28.319,2.577c-2.469-8.585-4.731-17.14-2.887-25.664,2.341-7.61,2.559-11.825-3.618-15.409l-4.17-9.3-7.548-.274-3.68-1.009a24.236,24.236,0,0,0-3.44,16.027C332.85,349.887,332.418,361.146,328.274,370.808Z" transform="translate(-272.177 -274.538)" fill="#3f3d56"/>
  <path id="Path_2209" data-name="Path 2209" d="M335.009,275.749l-2.848-13.074a19.9,19.9,0,0,1,.435-9.312,7.631,7.631,0,0,1,.346-.909,10.455,10.455,0,0,1,8.853-6.075c6.474-.447,7.424.235,7.658.572,3.658-.148,6.495,1.266,7.789,3.881a1.976,1.976,0,0,1-1.234,2.767,19.216,19.216,0,0,1-6.255.93c-3.82,4.582-2.258,12.977,1.617,17.979l.152.2-3.84.787-4.462-6.214a.661.661,0,0,0-1.184.519l1.355,6.581Z" transform="translate(-274.613 -222.424)" fill="#2f2e41"/>
  <path id="Path_2210" data-name="Path 2210" d="M268.534,559.776H0V559.1H268.656Z" transform="translate(0 -385.948)" fill="#cacaca"/>
  <path id="Path_2211" data-name="Path 2211" d="M326.241,402.308,256.2,451.839,239.415,428.1l70.042-49.53Z" transform="translate(-210.838 -313.78)" fill="#fff"/>
  <circle id="Ellipse_130" data-name="Ellipse 130" cx="6.081" cy="6.081" r="6.081" transform="matrix(0.816, -0.577, 0.577, 0.816, 40.233, 116.202)" fill="#3f3d56"/>
  <path id="Path_2212" data-name="Path 2212" d="M332.935,450.481a1.014,1.014,0,1,0,1.17,1.655l39.014-27.589a1.014,1.014,0,1,0-1.17-1.655Z" transform="translate(-275.099 -344.245)" fill="#e6e6e6"/>
  <path id="Path_2213" data-name="Path 2213" d="M344.269,479.625a1.014,1.014,0,1,0,1.167,1.658l0,0,30.7-21.706a1.014,1.014,0,1,0-1.17-1.655Z" transform="translate(-282.922 -368.424)" fill="#e6e6e6"/>
  <path id="Path_2214" data-name="Path 2214" d="M326.241,402.308,256.2,451.839,239.415,428.1l70.042-49.53Zm-69.633,47.147L323.858,401.9l-14.81-20.943L241.8,428.513Z" transform="translate(-210.838 -313.78)" fill="#e6e6e6"/>
  <path id="Ellipse_1" data-name="Ellipse 1" d="M1031.836,426.815a1.792,1.792,0,0,1,.727.124,1.716,1.716,0,0,1,.584.389,1.736,1.736,0,0,1,.382.593,1.846,1.846,0,0,1,.121.738,2,2,0,0,1-.177.747,2.092,2.092,0,0,1-.429.619,2.067,2.067,0,0,1-.616.425,1.938,1.938,0,0,1-.74.169,1.789,1.789,0,0,1-.727-.13,1.715,1.715,0,0,1-.581-.392,1.737,1.737,0,0,1-.378-.593,1.849,1.849,0,0,1-.118-.734,2,2,0,0,1,.176-.743,2.092,2.092,0,0,1,.425-.614,2.068,2.068,0,0,1,.612-.425,1.94,1.94,0,0,1,.737-.172Z" transform="translate(-756.5 -347.08)" fill="#f2f2f2"/>
  <path id="Path_2215" data-name="Path 2215" d="M368.028,414.243l-4.555-24.9.321-15.4-10.265-.321,1.925,17.323,6.637,24.021a4.338,4.338,0,1,0,5.937-.726Z" transform="translate(-289.61 -310.364)" fill="#ffb8b8"/>
  <path id="Path_2216" data-name="Path 2216" d="M351.457,338.762a16.222,16.222,0,0,1,11.549,0l-.642-12.832a5.133,5.133,0,0,0-5.133-5.133h0a5.133,5.133,0,0,0-5.133,5.133Z" transform="translate(-288.18 -273.898)" fill="#3f3d56"/>
</svg>
