<svg xmlns="http://www.w3.org/2000/svg" width="247.513" height="185" viewBox="0 0 247.513 185">
  <g id="Group_24" data-name="Group 24" transform="translate(0 0.028)">
    <path id="Path_1921" data-name="Path 1921" d="M611.877,565.431h-4.925l-2.344-19h7.269Z" transform="translate(-431.143 -389.681)" fill="#9e616a"/>
    <path id="Path_1922" data-name="Path 1922" d="M764.777,739.233h-3.532l-.63-3.334L759,739.233h-9.367a2.106,2.106,0,0,1-1.2-3.838l7.48-5.166v-3.371l7.868.47Z" transform="translate(-581.444 -554.95)" fill="#2f2e41"/>
    <path id="Path_1923" data-name="Path 1923" d="M689.253,553.094l-3.952,2.939-13.216-13.845,5.833-4.337Z" transform="translate(-479.261 -383.56)" fill="#9e616a"/>
    <path id="Path_1924" data-name="Path 1924" d="M887.027,714.773l-2.834,2.108-2.5-2.3.694,3.639-7.517,5.589a2.106,2.106,0,0,1-3.251-2.366l2.92-8.609-2.011-2.705,6.594-4.318Z" transform="translate(-669.858 -539.942)" fill="#2f2e41"/>
    <path id="Path_1925" data-name="Path 1925" d="M765.861,398.647s9.344,8.073,5.033,31.087l-5.263,22.55L782.8,480.76l-5.473,6.658L755.007,456.6l-8.086-18.968-2.269-33.76Z" transform="translate(-579.394 -320.905)" fill="#2f2e41"/>
    <path id="Path_1926" data-name="Path 1926" d="M598.05,425.746l-.562,8.7,1.72,37.091,8.093-1.41,1.547-26.408Z" transform="translate(-426.066 -303.618)" fill="#2f2e41"/>
    <path id="Path_1927" data-name="Path 1927" d="M237.444,585.989h4.4L243.943,569h-6.5Z" transform="translate(-169.32 -405.772)" fill="#ffb6b6"/>
    <path id="Path_1928" data-name="Path 1928" d="M402.178,745.914h1.24l4.84-1.968,2.594,1.968h0a5.528,5.528,0,0,1,5.527,5.527v.18h-14.2Z" transform="translate(-335.177 -567.136)" fill="#2f2e41"/>
    <path id="Path_1929" data-name="Path 1929" d="M296.932,577.352l4.3.97,5.786-16.108-6.34-1.432Z" transform="translate(-211.741 -399.912)" fill="#ffb6b6"/>
    <path id="Path_1930" data-name="Path 1930" d="M459.741,738.95l1.209.273,5.154-.854,2.1,2.491h0a5.528,5.528,0,0,1,4.174,6.609l-.04.175-13.852-3.128Z" transform="translate(-375.329 -563.159)" fill="#2f2e41"/>
    <path id="Path_1931" data-name="Path 1931" d="M383.133,393.843c-2.065,6.228-1.847,12.988.5,20.243l1,40.849s-1.492,26.788,3.323,36.214h6.983l3.458-38.661.434-25.949L413.8,448.431l-9.536,42.086,8.595.768,15.474-45.672L409.241,401.3Z" transform="translate(-320.587 -317.479)" fill="#2f2e41"/>
    <path id="Path_1932" data-name="Path 1932" d="M641.1,317.952c5.341-4.813,13.286-7.233,19.951-4.534a33.127,33.127,0,0,0-14.887,17.2c-1.061,2.823-1.947,6.073-4.557,7.584a7.405,7.405,0,0,1-5.464.532A21.994,21.994,0,0,1,631,336.465l-.468-.011C632.639,329.578,635.756,322.766,641.1,317.952Z" transform="translate(-498.019 -259.327)" fill="#e6e6e6"/>
    <path id="Path_1933" data-name="Path 1933" d="M661.2,315.928a28.315,28.315,0,0,0-15.753,7.44,12.192,12.192,0,0,0-2.394,2.977,6.994,6.994,0,0,0-.808,3.591,14.473,14.473,0,0,1-.061,3.5,4.282,4.282,0,0,1-2.13,2.78,11.126,11.126,0,0,1-4.271,1.166,10.924,10.924,0,0,0-4.746,1.3c-.171.111-.333-.161-.162-.272,2.459-1.594,5.572-1.014,8.216-2.077a4.337,4.337,0,0,0,2.712-2.685,11.233,11.233,0,0,0,.13-3.555,7.462,7.462,0,0,1,.66-3.54,11.273,11.273,0,0,1,2.271-3.058,27.47,27.47,0,0,1,6.981-5,28.817,28.817,0,0,1,9.353-2.886c.2-.026.2.291,0,.317Z" transform="translate(-498.205 -261.691)" fill="#fff"/>
    <path id="Path_1934" data-name="Path 1934" d="M684.488,324.053a4.248,4.248,0,0,1,.468-5.481c.145-.143.374.076.229.219a3.934,3.934,0,0,0-.425,5.1c.119.166-.154.327-.272.162Z" transform="translate(-535.929 -263.77)" fill="#fff"/>
    <path id="Path_1935" data-name="Path 1935" d="M669.878,360.515a8.188,8.188,0,0,0,5.851-1.172c.172-.11.334.162.162.272a8.517,8.517,0,0,1-6.091,1.207C669.6,360.786,669.678,360.479,669.878,360.515Z" transform="translate(-525.934 -292.859)" fill="#fff"/>
    <path id="Path_1936" data-name="Path 1936" d="M713.719,321.757a2.4,2.4,0,0,0,1.8,1.4c.2.034.123.341-.078.307a2.694,2.694,0,0,1-1.993-1.549.164.164,0,0,1,.055-.217.159.159,0,0,1,.217.055Z" transform="translate(-557.127 -266.02)" fill="#fff"/>
    <path id="Path_1937" data-name="Path 1937" d="M667.44,376.049c-.126-.017-.253-.035-.381-.05a31.668,31.668,0,0,0-5.13-.261c-.133,0-.267.006-.4.012a33.385,33.385,0,0,0-11.978,2.757,32.42,32.42,0,0,0-4.35,2.311c-1.919,1.215-3.9,2.685-6.047,3.18a5.564,5.564,0,0,1-.678.121l-8.862-7.673c-.011-.027-.025-.053-.036-.081l-.368-.29.209-.152c.04-.029.081-.057.121-.086s.054-.038.077-.057l.025-.017c.023-.019.047-.034.068-.05q.6-.427,1.215-.848s0,0,.005,0a47.668,47.668,0,0,1,9.927-5.336c.105-.04.212-.082.321-.118a30.942,30.942,0,0,1,4.86-1.367,27.36,27.36,0,0,1,2.741-.383,22.744,22.744,0,0,1,7.093.5,18.059,18.059,0,0,1,11.377,7.584C667.316,375.845,667.378,375.945,667.44,376.049Z" transform="translate(-497.073 -298.746)" fill="#e6e6e6"/>
    <path id="Path_1938" data-name="Path 1938" d="M667.8,387.42a28.315,28.315,0,0,0-17.057-3.544,12.193,12.193,0,0,0-3.7.936,6.994,6.994,0,0,0-2.807,2.38,14.476,14.476,0,0,1-2.158,2.76,4.282,4.282,0,0,1-3.374.937,11.125,11.125,0,0,1-4.112-1.64,10.925,10.925,0,0,0-4.571-1.821c-.2-.014-.169-.33.034-.315,2.923.208,5.059,2.545,7.811,3.288a4.337,4.337,0,0,0,3.782-.51,11.232,11.232,0,0,0,2.244-2.76,7.462,7.462,0,0,1,2.658-2.43,11.273,11.273,0,0,1,3.654-1.074,27.472,27.472,0,0,1,8.583.213,28.817,28.817,0,0,1,9.205,3.327c.177.1-.013.355-.188.255Z" transform="translate(-497.55 -310.022)" fill="#fff"/>
    <path id="Path_1939" data-name="Path 1939" d="M709.2,373.8a4.248,4.248,0,0,1,3.674-4.094c.2-.027.253.286.051.313a3.934,3.934,0,0,0-3.41,3.815C709.509,374.041,709.194,374.006,709.2,373.8Z" transform="translate(-554.113 -300.268)" fill="#fff"/>
    <path id="Path_1940" data-name="Path 1940" d="M680.168,394.687a8.188,8.188,0,0,0,5.377,2.587c.2.015.169.33-.034.315a8.517,8.517,0,0,1-5.59-2.7c-.139-.15.109-.348.247-.2Z" transform="translate(-533.205 -318.043)" fill="#fff"/>
    <path id="Path_1941" data-name="Path 1941" d="M740.144,387.756a2.4,2.4,0,0,0,.591,2.2c.141.148-.107.346-.247.2a2.7,2.7,0,0,1-.659-2.437.164.164,0,0,1,.175-.14A.159.159,0,0,1,740.144,387.756Z" transform="translate(-575.907 -313.013)" fill="#fff"/>
    <path id="Path_1942" data-name="Path 1942" d="M183.359,677.023a7.074,7.074,0,0,1-2.829,3.807c-.215.155-.436.3-.66.433-.069.04-.138.083-.209.121s-.155.089-.232.129h-6.206c-.112-.227-.221-.456-.33-.683-2.66-5.589-4.527-11.62-4.209-17.762a22.738,22.738,0,0,1,1.483-6.957,18.045,18.045,0,0,1,9.092-10.214c.106-.049.218-.1.327-.143-.034.123-.069.244-.1.367a31.787,31.787,0,0,0-.97,5.047c-.017.132-.032.264-.043.4a33.3,33.3,0,0,0,1.067,12.248c0,.009.006.02.009.029q.366,1.321.849,2.6c.252.674.525,1.34.823,1.994C182.464,671.184,184.134,674.111,183.359,677.023Z" transform="translate(-168.648 -497.115)" fill="#e6e6e6"/>
    <path id="Path_1943" data-name="Path 1943" d="M191.617,645.516l-.181.238a28.154,28.154,0,0,0-3.19,5.382c-.046.095-.089.189-.126.287a28.064,28.064,0,0,0-2.244,8.389.428.428,0,0,0-.006.06c-.072.677-.115,1.36-.132,2.043a12.187,12.187,0,0,0,.41,3.8,6.82,6.82,0,0,0,1.567,2.7c.072.077.143.155.221.229.057.06.12.121.181.178.58.554,1.214,1.067,1.759,1.661a6.15,6.15,0,0,1,.674.861,4.276,4.276,0,0,1,.459,3.472,11.1,11.1,0,0,1-2.195,3.844c-.456.585-.927,1.176-1.334,1.8-.149.224-.287.45-.413.683h-.361c.12-.232.252-.459.4-.683,1.047-1.65,2.536-3.067,3.308-4.883a4.328,4.328,0,0,0,.02-3.816,5.074,5.074,0,0,0-.7-.97c-.525-.594-1.153-1.1-1.724-1.638-.143-.135-.284-.273-.419-.416a7.162,7.162,0,0,1-1.618-2.553,11.255,11.255,0,0,1-.557-3.767c0-.815.043-1.635.123-2.45.009-.1.02-.209.032-.316a28.91,28.91,0,0,1,5.643-14.124c.057-.08.118-.158.178-.235C191.514,645.134,191.74,645.358,191.617,645.516Z" transform="translate(-180.602 -496.749)" fill="#fff"/>
    <path id="Path_1944" data-name="Path 1944" d="M177.555,685.833a4.248,4.248,0,0,1-3.544-4.207.159.159,0,0,1,.317-.007,3.934,3.934,0,0,0,3.305,3.906C177.834,685.558,177.756,685.865,177.555,685.833Z" transform="translate(-172.472 -522.584)" fill="#fff"/>
    <path id="Path_1945" data-name="Path 1945" d="M192.989,713.593a8.188,8.188,0,0,0,3.309-4.966c.043-.2.351-.122.307.078a8.516,8.516,0,0,1-3.454,5.16c-.168.117-.329-.156-.162-.272Z" transform="translate(-185.956 -541.867)" fill="#fff"/>
    <path id="Path_1946" data-name="Path 1946" d="M194.473,664.91a2.4,2.4,0,0,0,2.265-.279c.166-.119.328.154.162.272a2.7,2.7,0,0,1-2.5.314.164.164,0,0,1-.115-.192A.159.159,0,0,1,194.473,664.91Z" transform="translate(-186.924 -510.556)" fill="#fff"/>
    <path id="Path_1947" data-name="Path 1947" d="M216.029,683.752c-.1.078-.2.155-.3.235a31.658,31.658,0,0,0-3.813,3.443c-.092.095-.184.192-.273.29l0,0a33.381,33.381,0,0,0-6.5,10.369l-.009.026c0,.009-.006.014-.009.023a32.834,32.834,0,0,0-1.443,4.711,38.89,38.89,0,0,1-1.185,4.754c-.083.232-.175.462-.273.683H189.462c.043-.227.089-.456.135-.683a45.993,45.993,0,0,1,3.024-9.669c.046-.1.092-.207.143-.31a31.068,31.068,0,0,1,2.47-4.4v0h0a27.238,27.238,0,0,1,1.664-2.206,22.7,22.7,0,0,1,5.371-4.659c.011-.009.026-.014.037-.023a18.032,18.032,0,0,1,13.367-2.66h0C215.8,683.7,215.911,683.724,216.029,683.752Z" transform="translate(-183.49 -523.891)" fill="#e6e6e6"/>
    <path id="Path_1948" data-name="Path 1948" d="M227.417,684.6c-.1.026-.2.055-.29.083a28.281,28.281,0,0,0-5.787,2.373c-.092.049-.184.1-.275.152a28.191,28.191,0,0,0-6.825,5.334.01.01,0,0,0,0,.006c-.023.023-.049.049-.069.072-.459.493-.9,1.007-1.32,1.535a12.27,12.27,0,0,0-1.957,3.279,6.792,6.792,0,0,0-.376,3.1c.009.106.023.209.037.316.011.083.023.166.037.253a14.565,14.565,0,0,1,.425,3.477,4.277,4.277,0,0,1-1.724,3.05,6.823,6.823,0,0,1-1.056.671,10.568,10.568,0,0,1-1.655.683h-1.128l.453-.129a13.828,13.828,0,0,0,1.587-.554,7.721,7.721,0,0,0,.861-.425,4.343,4.343,0,0,0,2.315-3.035,11.267,11.267,0,0,0-.364-3.537c-.034-.2-.066-.4-.083-.6a7.012,7.012,0,0,1,.244-3,11.207,11.207,0,0,1,1.825-3.345,23.909,23.909,0,0,1,1.572-1.879q.1-.116.215-.232a28.95,28.95,0,0,1,6.946-5.374h0a28.49,28.49,0,0,1,6.054-2.508h0c.095-.029.192-.057.287-.083C227.566,684.237,227.612,684.55,227.417,684.6Z" transform="translate(-194.893 -524.591)" fill="#fff"/>
    <path id="Path_1949" data-name="Path 1949" d="M232.223,699.444a4.248,4.248,0,0,1-.3-5.493c.124-.162.381.023.257.185a3.934,3.934,0,0,0,.287,5.109C232.611,699.393,232.363,699.591,232.223,699.444Z" transform="translate(-213.153 -531.441)" fill="#fff"/>
    <path id="Path_1950" data-name="Path 1950" d="M222.331,735.939a8.188,8.188,0,0,0,5.632-1.973c.155-.133.353.114.2.247a8.517,8.517,0,0,1-5.864,2.041C222.092,736.246,222.128,735.931,222.331,735.939Z" transform="translate(-206.807 -559.992)" fill="#fff"/>
    <path id="Path_1951" data-name="Path 1951" d="M259.949,693.528a2.4,2.4,0,0,0,1.976,1.141c.2.005.169.32-.034.315a2.7,2.7,0,0,1-2.189-1.257.164.164,0,0,1,.024-.223A.159.159,0,0,1,259.949,693.528Z" transform="translate(-233.555 -531.142)" fill="#fff"/>
    <path id="Path_1952" data-name="Path 1952" d="M585.406,287.344a3.328,3.328,0,0,1-5.1.24L569.464,292.3l1.056-6.054,10.137-3.551a3.346,3.346,0,0,1,4.749,4.648Z" transform="translate(-454.468 -237.693)" fill="#ffb8b8"/>
    <path id="Path_1953" data-name="Path 1953" d="M453.084,265.444l-25.19,11.22-.054-.019-28.71-10.231a9.456,9.456,0,0,1-4.241-12.267h0a9.446,9.446,0,0,1,13.481-4.2l21.365,12.87,20.718-2.685Z" transform="translate(-329.384 -213.902)" fill="#e6e6e6"/>
    <path id="Path_1954" data-name="Path 1954" d="M416.185,770.354a.34.34,0,0,1-.341.341H169.023a.341.341,0,0,1,0-.683H415.844a.34.34,0,0,1,.341.341Z" transform="translate(-168.672 -585.724)" fill="#ccc"/>
    <path id="Path_1955" data-name="Path 1955" d="M410.507,281.022l-25.393-4.062a4.847,4.847,0,0,1-2.856-6.784l1.152-2.3-.447-24.2a17.926,17.926,0,0,1,8.7-15.68l2.476-1.481,1.251-3.178,11.539.281.034,4.168,4.133,6.59v.027l-.259,35.867-1.139,3.7,1.722,4.305Z" transform="translate(-320.607 -195.89)" fill="#e6e6e6"/>
    <circle id="Ellipse_90" data-name="Ellipse 90" cx="10.485" cy="10.485" r="10.485" transform="translate(71.128 2.523)" fill="#ffb8b8"/>
    <path id="Path_1956" data-name="Path 1956" d="M414.6,142.9a13.869,13.869,0,0,1,.008-4.5,12.59,12.59,0,0,1,5.329-8.742,3.839,3.839,0,0,1,1.912-.76,1.651,1.651,0,0,1,1.66,1,3.441,3.441,0,0,1,1.941-1.925,6.064,6.064,0,0,1,2.763-.372,10.1,10.1,0,0,1,8.424,6.022c.28.665,1.062-1.792,1.417-1.163a2.8,2.8,0,0,0,1.585,1.392c.7.194.978,3.059,1.251,2.391a3.184,3.184,0,0,1-3.044,4.44,17.533,17.533,0,0,1-2.083-.4,5.2,5.2,0,0,0-5.687,3.888,6.881,6.881,0,0,0-.905-2.014,2.329,2.329,0,0,0-1.869-1.027,2.617,2.617,0,0,0-1.8,1.034c-.462.542-.808,1.174-1.273,1.713-1.364,1.582-3.21,5.27-5.154,5C417.537,148.673,415.024,144.7,414.6,142.9Z" transform="translate(-343.902 -127.607)" fill="#2f2e41"/>
    <path id="Path_1957" data-name="Path 1957" d="M537.937,312.911a2.046,2.046,0,0,0-1.379-2.253l-28.235-9.4a2.046,2.046,0,0,0-.841-.1l-7.077.669-4.061.385-7.494.708a2.053,2.053,0,0,0-1.831,1.718l-3.8,23.766a2.062,2.062,0,0,0,1.287,2.237l28.53,11.013a2,2,0,0,0,.415.111,2.046,2.046,0,0,0,.624,0l18.435-2.732a2.043,2.043,0,0,0,1.728-1.721Z" transform="translate(-392.946 -251.379)" fill="#fff"/>
    <path id="Path_1958" data-name="Path 1958" d="M489.606,333.43l28.53,11.012a.258.258,0,0,0,.131.015l18.433-2.732a.254.254,0,0,0,.217-.216l3.707-24.406a.26.26,0,0,0-.172-.282l-.19-.064-28.047-9.338a.193.193,0,0,0-.039-.009.253.253,0,0,0-.066,0l-17.261,1.633-1.37.129a.259.259,0,0,0-.228.215l-3.8,23.766A.257.257,0,0,0,489.606,333.43Z" transform="translate(-397.405 -255.842)" fill="#909090"/>
    <path id="Path_1959" data-name="Path 1959" d="M508.282,309.041l17.261-1.633a.254.254,0,0,1,.066,0,.2.2,0,0,1,.039.01l28.047,9.338-7.4.783-2.769.292-7.878.832a.556.556,0,0,1-.069,0l-.045-.013Z" transform="translate(-410.84 -255.841)" fill="#2f2e41"/>
    <path id="Path_1960" data-name="Path 1960" d="M484.5,330.643l28.53,11.012a1.93,1.93,0,0,0,.416.109,2.071,2.071,0,0,0,.625.008L532.5,339.04a2.047,2.047,0,0,0,1.73-1.723l3.7-24.406a2.063,2.063,0,0,0-.12-1.066c-.019-.045-.038-.09-.059-.132a2,2,0,0,0-.649-.774,2.05,2.05,0,0,0-.55-.28l-.033-.012-28.2-9.393a2.566,2.566,0,0,0-.352-.086,2.033,2.033,0,0,0-.492-.01l-7.076.667-4.06.387-7.495.708a2.034,2.034,0,0,0-.866.286.38.38,0,0,0-.058.035.345.345,0,0,0-.037.028,2.051,2.051,0,0,0-.868,1.367L483.208,328.4A2.064,2.064,0,0,0,484.5,330.643Zm3.025-25.924a1.52,1.52,0,0,1,.364-.766,1.333,1.333,0,0,1,.194-.189,1.526,1.526,0,0,1,.667-.311,1.173,1.173,0,0,1,.146-.021l12.619-1.192,6.015-.572c.041,0,.078,0,.116-.006a1.439,1.439,0,0,1,.272.02,1.187,1.187,0,0,1,.242.058l28.234,9.4.064.023a1.537,1.537,0,0,1,.974,1.664l-3.707,24.409a1.535,1.535,0,0,1-1.294,1.292l-18.436,2.732a1.552,1.552,0,0,1-.781-.089l-28.53-11.009a1.55,1.55,0,0,1-.964-1.677Z" transform="translate(-392.942 -251.379)" fill="#3f3d56"/>
    <path id="Path_1961" data-name="Path 1961" d="M499.318,308.57a.252.252,0,0,1,.077-.111.3.3,0,0,1,.037-.025l.036-.017a.251.251,0,0,1,.179,0l.594.209,29.01,10.234,6.79-.717,3.8-.4,8.042-.851.719-.075.14-.015a.259.259,0,0,1,.273.187.214.214,0,0,1,.008.041.256.256,0,0,1-.158.264.284.284,0,0,1-.071.019l-.978.1-7.919.837-2.769.292-7.879.832a.555.555,0,0,1-.069,0l-.045-.013-29.56-10.425-.1-.036a.192.192,0,0,1-.063-.035A.261.261,0,0,1,499.318,308.57Z" transform="translate(-404.438 -256.549)" fill="#3f3d56"/>
    <path id="Path_1962" data-name="Path 1962" d="M588.382,373.012a.256.256,0,0,1-.213-.291l4.165-27.639a.256.256,0,0,1,.292-.215h0a.256.256,0,0,1,.213.291L588.677,372.8a.256.256,0,0,1-.292.215Z" transform="translate(-467.805 -282.552)" fill="#3f3d56"/>
    <path id="Path_1963" data-name="Path 1963" d="M618.831,368.309l-2.77.292,3.24-27.409s3.7-.67,3.8-.4C623.161,340.952,618.858,368.134,618.831,368.309Z" transform="translate(-487.697 -279.603)" fill="#3f3d56"/>
    <path id="Path_1964" data-name="Path 1964" d="M331.065,182.533l-.075,12.5,22.128,8.432,7.946-10.674Z" transform="translate(-236.028 -130.184)" fill="#3f3d56"/>
    <path id="Path_1965" data-name="Path 1965" d="M597.9,299.63a1.521,1.521,0,0,0-.716-.5l-28.233-9.4a1.465,1.465,0,0,0-.243-.059,1.435,1.435,0,0,0-.273-.02l.046-.286.283-.2,6.7-4.854,22.39,6.862.039,7.761Z" transform="translate(-453.731 -239.367)" fill="#3f3d56"/>
    <path id="Path_1966" data-name="Path 1966" d="M502.658,380.075a.432.432,0,0,1,.094.02l8.663,2.845a.43.43,0,1,1-.268.818l-8.663-2.845a.43.43,0,0,1,.175-.838Z" transform="translate(-406.494 -307.66)" fill="#fff"/>
    <circle id="Ellipse_91" data-name="Ellipse 91" cx="3.443" cy="3.443" r="3.443" transform="translate(127.673 117.965)" fill="#f2f2f2"/>
    <circle id="Ellipse_92" data-name="Ellipse 92" cx="3.443" cy="3.443" r="3.443" transform="translate(39.881 130.589)" fill="#f2f2f2"/>
    <circle id="Ellipse_93" data-name="Ellipse 93" cx="3.443" cy="3.443" r="3.443" transform="translate(111.607 16.688)" fill="#f2f2f2"/>
    <path id="Path_1967" data-name="Path 1967" d="M548.751,377.258a3.328,3.328,0,0,1-4.564-2.283l-11.766-1.189,3.882-4.764,10.579,1.859a3.346,3.346,0,0,1,1.87,6.377Z" transform="translate(-428.053 -299.779)" fill="#ffb8b8"/>
    <path id="Path_1968" data-name="Path 1968" d="M442.138,291.343l-27.459-2.53-.038-.043L394.6,265.807a9.456,9.456,0,0,1,2.3-12.774h0a9.446,9.446,0,0,1,13.813,2.929l12.343,21.674,19.385,7.789Z" transform="translate(-328.677 -215.754)" fill="#e6e6e6"/>
    <path id="Path_1969" data-name="Path 1969" d="M739.665,193.59c-.682-5-1.537-10.372-5.065-13.983a11.864,11.864,0,0,0-17.141.177,15.7,15.7,0,0,0-3.806,10.34,40.72,40.72,0,0,0,1.66,11.1,34.225,34.225,0,0,0,14.284-2.811,23.013,23.013,0,0,1,3.425-1.345c1.19-.3,2.038.459,3.145.991l.608-1.164c.5.926,2.038.651,2.6-.239A4.589,4.589,0,0,0,739.665,193.59Z" transform="translate(-557.283 -162.161)" fill="#2f2e41"/>
    <path id="Path_1970" data-name="Path 1970" d="M672,309.662l-20.048.429a3.172,3.172,0,1,0-1.417,4.468c2.659.151,23.461,3.1,24.7,1.2,1.26-1.931,7.983-8.747,7.983-8.747l-5.168-7.357Z" transform="translate(-509.068 -250.315)" fill="#9e616a"/>
    <circle id="Ellipse_94" data-name="Ellipse 94" cx="9.419" cy="9.419" r="9.419" transform="translate(158.394 17.54)" fill="#9e616a"/>
    <path id="Path_1971" data-name="Path 1971" d="M599.361,299.184" transform="translate(-475.788 -249.978)" fill="#6c63ff"/>
    <path id="Path_1972" data-name="Path 1972" d="M749.675,270.37c-1.11-2.209-1.649-4.938-4.016-5.654-1.6-.484-8.061.241-9.518,1.058-2.422,1.358-.227,3.9-1.656,6.284-1.554,2.589-5.776,7.784-7.33,10.372-1.068,1.78,2.53,7,1.952,9a8.125,8.125,0,0,0,.379,6.059c.881,1.636-.393,3.083.492,4.716.921,1.7,2.051,8.048,1.194,9.78L730.6,313.7c5.694.335,10.482-6.468,16.141-7.185a8.77,8.77,0,0,0,4.023-1.226c1.706-1.2,2.38-3.382,2.8-5.426A45.711,45.711,0,0,0,749.675,270.37Z" transform="translate(-566.776 -225.288)" fill="#3f3d56"/>
    <path id="Path_1973" data-name="Path 1973" d="M780.167,336.551c-.793-2.165-2.229-11.63-2.229-11.63l-8.987-.264,4.394,10.837-11.99,16.785.063.1a3.171,3.171,0,1,0,2.66,3.37.219.219,0,0,0,.275-.047C765.686,354.03,780.96,338.716,780.167,336.551Z" transform="translate(-588.73 -268.143)" fill="#9e616a"/>
    <path id="Path_1974" data-name="Path 1974" d="M798.624,294.189a64.5,64.5,0,0,0-3.047-10.279,21.6,21.6,0,0,0-6.182-8.637,7.23,7.23,0,0,0-3.018-1.562,3.479,3.479,0,0,0-3.175.855c-1.261,1.327-.882,3.456-.419,5.227l4.092,15.665,11.817-1.253Z" transform="translate(-606.273 -231.759)" fill="#3f3d56"/>
    <path id="Path_1975" data-name="Path 1975" d="M731.539,192.761a32.687,32.687,0,0,0-1.524-6.722A10.864,10.864,0,0,0,726,180.668c-2.983-1.924-6.846-1.553-10.191-.446a15.46,15.46,0,0,0-6.936,4.249,8.964,8.964,0,0,0-2.17,7.811l10.7-2.529-.391.276a8.618,8.618,0,0,1,4.6,5.994,8.929,8.929,0,0,1-1.884,7.416l7.3-2.59c1.5-.533,3.11-1.147,4-2.513C732.066,196.752,731.827,194.652,731.539,192.761Z" transform="translate(-552.184 -164.495)" fill="#2f2e41"/>
  </g>
</svg>
